<svg height='300px' width='300px'  fill="#000000" xmlns:dc="http://purl.org/dc/elements/1.1/" xmlns:cc="http://creativecommons.org/ns#" xmlns:rdf="http://www.w3.org/1999/02/22-rdf-syntax-ns#" xmlns:svg="http://www.w3.org/2000/svg" xmlns="http://www.w3.org/2000/svg" xmlns:sodipodi="http://sodipodi.sourceforge.net/DTD/sodipodi-0.dtd" xmlns:inkscape="http://www.inkscape.org/namespaces/inkscape" version="1.1" x="0px" y="0px" viewBox="0 0 100 100"><g transform="translate(0,-952.36218)"><path style="font-size:medium;font-style:normal;font-variant:normal;font-weight:normal;font-stretch:normal;text-indent:0;text-align:start;text-decoration:none;line-height:normal;letter-spacing:normal;word-spacing:normal;text-transform:none;direction:ltr;block-progression:tb;writing-mode:lr-tb;text-anchor:start;baseline-shift:baseline;opacity:1;color:#000000;fill:#000000;fill-opacity:1;stroke:none;stroke-width:4;marker:none;visibility:visible;display:inline;overflow:visible;enable-background:accumulate;font-family:Sans;-inkscape-font-specification:Sans" d="M 65 16 C 64.333276 16 63.738401 16.310946 63.375 16.8125 C 63.25228 16.981873 55.472949 33.522488 47.75 50 C 40.508209 65.4584 33.317181 80.85215 33.21875 81.03125 C 33.061892 81.31665 32.96875 81.6513 32.96875 82 C 32.96875 83.1045 33.864181 84 34.96875 84 C 35.635474 84 36.230349 83.689 36.59375 83.1875 C 36.71647 83.0181 44.495801 66.4775 52.21875 50 C 59.460541 34.541562 66.651569 19.147847 66.75 18.96875 C 66.906858 18.683346 67 18.348667 67 18 C 67 16.895431 66.104569 16 65 16 z M 27.875 25.96875 C 27.360995 26.01305 26.867928 26.26534 26.53125 26.65625 C 26.53125 26.65625 6.77218 48.31075 6.40625 48.78125 C 6.1428158 49.12005 6 49.5376 6 50 C 6 50.4443 6.1298726 50.8555 6.375 51.1875 C 6.739229 51.6808 26.53125 73.34375 26.53125 73.34375 C 27.198621 74.23365 28.648085 74.3758 29.46875 73.625 C 30.289416 72.8742 30.295893 71.39995 29.46875 70.65625 L 10.6875 50 L 29.46875 29.34375 C 30.02203 28.76336 30.186148 27.85008 29.84375 27.125 C 29.501352 26.39992 28.674719 25.91023 27.875 25.96875 z M 72.125 25.96875 C 71.325281 25.91023 70.498648 26.39992 70.15625 27.125 C 69.813852 27.85008 69.97797 28.76336 70.53125 29.34375 L 89.3125 50 L 70.53125 70.65625 C 69.704107 71.39995 69.710584 72.8742 70.53125 73.625 C 71.351915 74.3758 72.801379 74.23365 73.46875 73.34375 C 73.46875 73.34375 93.260771 51.6808 93.625 51.1875 C 93.870128 50.8555 94 50.4443 94 50 C 94 49.5376 93.857185 49.12005 93.59375 48.78125 C 93.22782 48.31075 73.46875 26.65625 73.46875 26.65625 C 73.132072 26.26534 72.639005 26.01305 72.125 25.96875 z " transform="translate(0,952.36218)"></path></g></svg>