<svg xmlns="http://www.w3.org/2000/svg" xmlns:xlink="http://www.w3.org/1999/xlink" width="1200" height="1200" viewBox="0 0 1200 1200"><g><g transform="translate(600 600) scale(0.69 0.69) rotate(0) translate(-600 -600)" style="fill:#3e3f3a"><svg fill="#3e3f3a" xmlns="http://www.w3.org/2000/svg" viewBox="0 0 24 24" x="0px" y="0px"><title>_</title><circle cx="11.00018" cy="10" r="2"></circle><path d="M18.00006,10a7,7,0,1,0-11,5.74V21h8V18h3V14l2-1Zm-3.49988.05017a3.48,3.48,0,0,1-.25457,1.29639l.90167.52057-.5.866-.91034-.52557a3.49268,3.49268,0,0,1-1.08759.91187l.35974.98834-.93969.342-.35437-.97363a3.48863,3.48863,0,0,1-1.42975,0l-.35437.97363-.9397-.342.35974-.98841a3.49243,3.49243,0,0,1-1.08758-.9118l-.91034.52557-.5-.866.90167-.52057a3.48,3.48,0,0,1-.25452-1.29639c0-.0368.00977-.07092.01087-.10748L6.48169,9.76117l.17364-.98486L7.691,8.959a3.476,3.476,0,0,1,.70807-1.23077l-.6745-.80383.766-.64282.67243.80139a3.46364,3.46364,0,0,1,1.33709-.48236V5.55017h1V6.60059a3.46369,3.46369,0,0,1,1.3371.48236l.67242-.80139.766.64282-.6745.80383a3.47587,3.47587,0,0,1,.70813,1.23071L15.345,8.77631l.17365.98486-1.0293.18146C14.49048,9.97919,14.50018,10.01337,14.50018,10.05017Z"></path></svg></g></g></svg>